<?xml version="1.0" encoding="UTF-8" standalone="no"?>
<!DOCTYPE svg PUBLIC "-//W3C//DTD SVG 1.1//EN" "http://www.w3.org/Graphics/SVG/1.1/DTD/svg11.dtd">
<svg width="100%" height="100%" viewBox="0 0 1401 1401" version="1.1" xmlns="http://www.w3.org/2000/svg" xmlns:xlink="http://www.w3.org/1999/xlink" xml:space="preserve" xmlns:serif="http://www.serif.com/" style="fill-rule:evenodd;clip-rule:evenodd;stroke-linejoin:round;stroke-miterlimit:2;">
    <g transform="matrix(1,0,0,1,16439,-9091)">
        <g transform="matrix(1.91781,0,0,1.91781,-27523.6,7411.67)">
            <path d="M5982.22,1488.2C6028.92,1519.04 6084.88,1537 6145,1537L6145.96,1537C6198.73,1536.83 6248.27,1522.82 6291.13,1498.42L6341.37,1548.65C6284.64,1584.96 6217.26,1606 6145,1606C6065.81,1606 5992.48,1580.73 5932.61,1537.8L5982.22,1488.2ZM6441.8,1028.62C6484.73,1088.48 6510,1161.81 6510,1241C6510,1327.08 6480.14,1406.24 6430.22,1468.67L6381.06,1419.52C6418.67,1369.88 6441,1308.03 6441,1241C6441,1180.89 6423.04,1124.93 6392.2,1078.22L6441.8,1028.62ZM5837.35,1044.63L5887.58,1094.86C5863.03,1138 5849,1187.87 5849,1241C5849,1301.12 5866.96,1357.08 5897.8,1403.78L5848.2,1453.38C5805.27,1393.52 5780,1320.19 5780,1241C5780,1168.74 5801.04,1101.36 5837.35,1044.63ZM5917.33,955.781C5979.76,905.862 6058.92,876 6145,876C6224.19,876 6297.52,901.273 6357.39,944.2L6307.78,993.804C6261.31,963.126 6205.71,945.196 6145.96,945.002L6145,945C6077.97,945 6016.11,967.328 5966.48,1004.94L5917.33,955.781Z" style="fill:rgb(0,169,163);"/>
        </g>
    </g>
</svg>
