<?xml version="1.0" encoding="UTF-8" standalone="no"?>
<!DOCTYPE svg PUBLIC "-//W3C//DTD SVG 1.1//EN" "http://www.w3.org/Graphics/SVG/1.1/DTD/svg11.dtd">
<svg width="100%" height="100%" viewBox="0 0 2401 2401" version="1.1" xmlns="http://www.w3.org/2000/svg" xmlns:xlink="http://www.w3.org/1999/xlink" xml:space="preserve" xmlns:serif="http://www.serif.com/" style="fill-rule:evenodd;clip-rule:evenodd;stroke-linejoin:round;stroke-miterlimit:2;">
    <g transform="matrix(1,0,0,1,19663,-8591)">
        <g transform="matrix(1.43885,0,0,1.43885,-30077,5358.58)">
            <path d="M8464.12,3663.22L8558.91,3758C8421.87,3856.78 8253.68,3915 8072,3915C8043.92,3915 8016.17,3913.61 7988.79,3910.89L8023.5,3781.35C8039.51,3782.44 8055.69,3783 8072,3783C8217.17,3783 8352.12,3738.84 8464.12,3663.22ZM7441.19,3389.18C7509.82,3529.26 7623.73,3643.17 7763.82,3711.81L7729.1,3841.37C7544.23,3757.77 7395.2,3608.73 7311.63,3423.9L7441.19,3389.18ZM8901.89,2997.79C8904.61,3025.17 8906,3052.92 8906,3081C8906,3262.68 8847.78,3430.87 8749,3567.91L8654.22,3473.12C8729.84,3361.12 8774,3226.18 8774,3081C8774,3064.69 8773.44,3048.51 8772.35,3032.5L8901.89,2997.79ZM7395,2594.09L7489.78,2688.88C7414.16,2800.88 7370,2935.83 7370,3081C7370,3097.31 7370.56,3113.49 7371.65,3129.5L7242.11,3164.21C7239.39,3136.83 7238,3109.08 7238,3081C7238,2899.32 7296.22,2731.13 7395,2594.09ZM8414.9,2320.63C8599.77,2404.23 8748.8,2553.27 8832.37,2738.1L8702.81,2772.82C8634.18,2632.74 8520.27,2518.83 8380.18,2450.19L8414.9,2320.63ZM7585.09,2404C7722.13,2305.22 7890.32,2247 8072,2247C8100.08,2247 8127.83,2248.39 8155.21,2251.11L8120.5,2380.65C8104.49,2379.56 8088.31,2379 8072,2379C7926.82,2379 7791.88,2423.16 7679.88,2498.78L7585.09,2404Z" style="fill:rgb(0,169,163);fill-opacity:0.5;"/>
        </g>
    </g>
</svg>
