<?xml version="1.0" encoding="UTF-8" standalone="no"?>
<!DOCTYPE svg PUBLIC "-//W3C//DTD SVG 1.1//EN" "http://www.w3.org/Graphics/SVG/1.1/DTD/svg11.dtd">
<svg width="100%" height="100%" viewBox="0 0 3001 3001" version="1.1" xmlns="http://www.w3.org/2000/svg" xmlns:xlink="http://www.w3.org/1999/xlink" xml:space="preserve" xmlns:serif="http://www.serif.com/" style="fill-rule:evenodd;clip-rule:evenodd;stroke-linejoin:round;stroke-miterlimit:2;">
    <g transform="matrix(1,0,0,1,23845,-8291)">
        <g transform="matrix(0.997681,0,0,0.997681,-35907.1,4948.93)">
            <path d="M14464.5,6000.99L14518.6,6055.12L14517.1,6056.27C14475.5,6088.23 14432.3,6118.1 14387.7,6145.62C14312,6192.22 14232.3,6232.16 14149.6,6264.77C14077.4,6293.3 14002.9,6316.22 13927,6333.24C13882.3,6343.28 13837.1,6351.24 13791.7,6357.2L13789.5,6357.49L13789.5,6280.93C14040.8,6246.76 14271.7,6147.63 14464.5,6000.99ZM12723.5,6000.99C12916.3,6147.6 13147.1,6246.74 13398.5,6280.93L13398.5,6357.49C13126.3,6322.36 12876.6,6214.94 12669.4,6055.12L12723.5,6000.99ZM12167.1,5049.5C12201.2,5300.84 12300.4,5531.66 12447,5724.51L12392.9,5778.64L12391.7,5777.14C12359.8,5735.53 12329.9,5692.32 12302.4,5647.65C12255.8,5572.02 12215.8,5492.29 12183.2,5409.65C12154.7,5337.35 12131.8,5262.85 12114.8,5187.02C12104.7,5142.31 12096.8,5097.14 12090.8,5051.71L12090.5,5049.5L12167.1,5049.5ZM15020.9,5049.5L15097.5,5049.5C15062.4,5321.7 14954.9,5571.38 14795.1,5778.64L14741,5724.51C14887.6,5531.72 14986.7,5300.89 15020.9,5049.5ZM12447,3983.49C12300.4,4176.28 12201.3,4407.11 12167.1,4658.5L12090.5,4658.5C12125.6,4386.3 12233.1,4136.62 12392.9,3929.36L12447,3983.49ZM14741,3983.49L14795.1,3929.36L14796.3,3930.86C14828.2,3972.47 14858.1,4015.68 14885.6,4060.35C14932.2,4135.98 14972.2,4215.71 15004.8,4298.35C15033.3,4370.65 15056.2,4445.15 15073.2,4520.98C15083.3,4565.69 15091.2,4610.86 15097.2,4656.29L15097.5,4658.5L15020.9,4658.5C14986.8,4407.16 14887.6,4176.34 14741,3983.49ZM13789.5,3427.07L13789.5,3350.51C14061.7,3385.64 14311.4,3493.06 14518.6,3652.88L14464.5,3707.01C14271.7,3560.4 14040.9,3461.26 13789.5,3427.07ZM13398.5,3427.07C13147.2,3461.24 12916.3,3560.37 12723.5,3707.01L12669.4,3652.88L12670.9,3651.73C12712.5,3619.77 12755.7,3589.91 12800.3,3562.38C12876,3515.78 12955.7,3475.84 13038.4,3443.23C13110.6,3414.7 13185.1,3391.78 13261,3374.76C13305.7,3364.72 13350.9,3356.76 13396.3,3350.8L13398.5,3350.51L13398.5,3427.07Z" style="fill:rgb(0,169,163);"/>
        </g>
    </g>
</svg>
